<?xml version="1.0" encoding="utf-8"?>
<!-- Generator: Adobe Illustrator 23.0.3, SVG Export Plug-In . SVG Version: 6.00 Build 0)  -->
<svg version="1.1" id="Ebene_1" xmlns="http://www.w3.org/2000/svg" xmlns:xlink="http://www.w3.org/1999/xlink" x="0px" y="0px"
	 viewBox="0 0 283.09 283.09" style="enable-background:new 0 0 283.09 283.09;" xml:space="preserve">
<g>
	<g>
		<g>
			<path d="M88.35,205.21l14.59-6.23V87.76l-14.59-3.12v-8.18h101.66l2.14,37.01h-7.21l-20.26-27.07h-36.62v51.23h47.14v11.88
				h-47.14v52.01l14.59,2.92v8.38H88.35V205.21z"/>
		</g>
	</g>
	<polygon points="189.61,171.56 171.58,199.04 156.99,205.28 156.99,212.87 157.02,212.87 171.58,212.87 192.14,212.87 
		197.01,171.56 	"/>
</g>
<g>
	<path d="M25.26,129.67c-1.37-0.18-2.29-1.4-2.12-2.74c0.17-1.34,1.37-2.29,2.74-2.12c1.34,0.17,2.29,1.41,2.12,2.74
		C27.83,128.89,26.6,129.84,25.26,129.67z"/>
	<path d="M47.07,101.14l-1.63,3.63l-19.54-8.79l5.9-13.12l3.41,1.53l-4.27,9.49l4.55,2.05l3.93-8.74l3.41,1.53l-3.93,8.74
		L47.07,101.14z"/>
	<path d="M60.8,61.17c4.87,4.01,6.02,10.36,1.84,15.44c-4.19,5.08-10.64,5.16-15.5,1.15c-4.87-4.01-6.05-10.38-1.86-15.46
		C49.46,57.22,55.94,57.16,60.8,61.17z M58.23,64.29c-3.28-2.71-7.34-2.79-10,0.44c-2.67,3.24-1.81,7.2,1.48,9.9
		c3.28,2.71,7.31,2.77,9.98-0.46C62.35,70.93,61.52,66.99,58.23,64.29z"/>
	<path d="M78.66,38.45l-5.72,4.1l10.31,14.38l-3.21,2.3L69.73,44.85l-5.65,4.05l-2.18-3.04l14.58-10.45L78.66,38.45z"/>
	<path d="M111.38,31.64c2.24,5.9,0.11,11.98-6.05,14.33c-6.15,2.34-11.8-0.78-14.04-6.68s-0.12-12.01,6.04-14.35
		C103.48,22.59,109.14,25.75,111.38,31.64z M107.61,33.08c-1.51-3.98-4.99-6.06-8.91-4.57c-3.92,1.49-5.13,5.36-3.62,9.34
		c1.51,3.98,4.98,6.03,8.9,4.54C107.89,40.9,109.12,37.06,107.61,33.08z"/>
	<path d="M140.16,38.54l1.14-21.4l14.37,0.77l-0.2,3.73l-10.4-0.55l-0.27,4.98l9.57,0.51l-0.2,3.73l-9.57-0.51l-0.28,5.23
		l10.98,0.58l-0.2,3.73L140.16,38.54z"/>
	<path d="M182.51,38.54l3.86,1.29c-2.12,5.26-7.12,6.52-11.79,4.96c-6.36-2.13-8.17-8.19-6.26-13.9c1.84-5.49,6.74-9.62,13.53-7.35
		c4.79,1.6,7.47,5.37,6.43,10.19l-3.86-1.29c0.54-2.37-1.18-4.49-3.85-5.39c-4.15-1.39-7.17,1.28-8.43,5.02
		c-1.32,3.95-0.22,7.8,3.7,9.11C178.35,42.02,181.22,41.63,182.51,38.54z"/>
	<path d="M204.38,48.41l-3.16,0.63l-4.12,5.9l-3.26-2.28l12.26-17.58l3.26,2.28l-5.34,7.66l12.22-2.86l4.37,3.05l-12.07,2.37
		l0.08,15.4l-4.22-2.94L204.38,48.41z"/>
	<path d="M215.59,69.9l16.35-13.84l9.29,10.98l-2.85,2.41l-6.72-7.94l-3.81,3.22l6.19,7.31l-2.85,2.41L225,67.15l-4,3.38l7.1,8.39
		l-2.85,2.41L215.59,69.9z"/>
	<path d="M238.8,106.8l-1.94-4.13l5.46-8.48l-1.53-3.27l-7.73,3.63l-1.68-3.58l19.4-9.1l3.74,7.98c2.07,4.41,0.19,7.75-2.64,9.08
		c-2.27,1.07-5.18,0.84-7.18-1.33L238.8,106.8z M246.1,93.67c0.94,2,2.65,2.34,4.01,1.7c1.14-0.53,2.04-1.77,1.11-3.77l-2.15-4.57
		l-4.99,2.34L246.1,93.67z"/>
	<path d="M257.37,124.97c1.37-0.16,2.56,0.81,2.72,2.15c0.16,1.34-0.78,2.56-2.15,2.72c-1.34,0.16-2.56-0.81-2.72-2.15
		C255.06,126.35,256.03,125.13,257.37,124.97z"/>
</g>
<g>
	<path d="M19.42,167.09l-1.6-10.19l15.44-2.42l0.45,2.87l-12.75,2l1.15,7.32L19.42,167.09z"/>
	<path d="M40.64,183.45l-9.11,3.15c-4.05,1.4-6.86-0.3-8.08-3.84c-1.22-3.52-0.1-6.65,3.97-8.06l9.11-3.15l0.94,2.72l-8.99,3.11
		c-2.32,0.8-3.09,2.53-2.39,4.56c0.66,1.9,2.14,2.78,4.38,2l9.24-3.19L40.64,183.45z"/>
	<path d="M36.95,209.73l-6.31-10.85l2.35-1.37l13.08,2.23l-4.14-7.12l2.35-1.37l5.95,10.23l-2.35,1.37l-13.05-2.19l4.48,7.7
		L36.95,209.73z"/>
	<path d="M43.79,219.12l11.85-10.19l6.84,7.95l-2.06,1.78l-4.95-5.75l-2.76,2.37l4.56,5.3l-2.06,1.78l-4.56-5.3l-2.89,2.49
		l5.23,6.08l-2.06,1.78L43.79,219.12z"/>
	<path d="M69.44,243.52l-2.6-2.07l0.82-7.3l-2.06-1.64l-3.88,4.88l-2.25-1.79l9.72-12.23l5.03,4c2.78,2.21,2.64,5,1.22,6.79
		c-1.14,1.43-3.11,2.23-5.12,1.46L69.44,243.52z M69.96,232.58c1.26,1,2.49,0.67,3.17-0.19c0.57-0.72,0.76-1.82-0.5-2.82l-2.88-2.29
		l-2.5,3.15L69.96,232.58z"/>
	<path d="M90.5,255.41L87.73,254l-1.2-12.98l-4.99,9.83l-2.55-1.29l7.08-13.93l2.99,1.52l1.11,12.61l4.86-9.58l2.55,1.29
		L90.5,255.41z"/>
	<path d="M120.11,257.42c0.22-1.43,1.54-2.37,2.94-2.16c1.4,0.22,2.38,1.51,2.16,2.94c-0.22,1.4-1.54,2.37-2.94,2.16
		C120.86,260.15,119.89,258.82,120.11,257.42z"/>
	<path d="M159.68,264.96c-3.18,0.47-6.62-0.86-7.19-4.72l2.87-0.42c0.43,2.29,2.26,2.94,3.94,2.7c1.5-0.22,2.71-1.19,2.52-2.51
		c-0.23-1.55-2.02-1.6-3.89-1.75c-2.26-0.19-5.39-0.56-5.88-3.9c-0.47-3.18,1.93-5.13,5.05-5.59c3.12-0.46,5.9,0.71,6.4,4.09
		l-2.89,0.42c-0.35-1.8-1.59-2.23-3.23-1.99c-1.68,0.25-2.73,1.06-2.53,2.42c0.22,1.5,1.78,1.7,3.59,1.84
		c2.03,0.15,5.7,0.23,6.23,3.85C165.12,262.49,162.73,264.51,159.68,264.96z"/>
	<path d="M176.82,260.84l-5.06-14.79l9.93-3.4l0.88,2.58l-7.18,2.46l1.18,3.44l6.61-2.26l0.88,2.58l-6.61,2.26l1.24,3.61l7.58-2.59
		l0.88,2.58L176.82,260.84z"/>
	<path d="M200.19,251.08l-2.55,1.34l-7.25-13.84l2.55-1.34L200.19,251.08z"/>
	<path d="M212.42,227.6l-4.15,3.03l7.62,10.42l-2.33,1.7l-7.62-10.42l-4.09,2.99l-1.61-2.2l10.56-7.72L212.42,227.6z"/>
	<path d="M240.74,216.44l-1.72,2.17l-9.25-7.31c-0.17,1.43-0.8,2.78-1.4,3.67l-2.07-1.63c0.69-1.19,1.16-2.72,0.91-4.57l1.47-1.86
		L240.74,216.44z"/>
	<path d="M248.99,195.38c2.45,1.38,2.79,4.27,1.23,7.05s-4.22,3.98-6.67,2.6c-1.81-1.02-2.27-2.79-1.86-4.2
		c-0.89,0.81-2.5,1.3-4.19,0.35c-2.35-1.33-2.46-4.13-1.1-6.54s3.82-3.77,6.17-2.44c1.69,0.95,2.1,2.59,1.87,3.77
		C245.43,194.89,247.18,194.36,248.99,195.38z M239.15,198.83c1.03,0.58,2.23,0.23,2.92-0.99c0.69-1.22,0.37-2.43-0.66-3.01
		c-0.84-0.47-1.94-0.38-2.76,1.08S238.32,198.36,239.15,198.83z M247.41,197.82c-1.11-0.62-2.45-0.38-3.32,1.15
		c-0.87,1.54-0.38,2.81,0.73,3.43c1.13,0.64,2.29,0.26,3.14-1.25C248.8,199.68,248.54,198.46,247.41,197.82z"/>
	<path d="M248.84,173.28l9.87,10l-0.95,2.69l-9.84-9.95l-2.83,8l-2.61-0.92l3.8-10.74L248.84,173.28z"/>
	<path d="M252.74,154.72l11.4,8.21l-0.49,2.82l-11.37-8.16l-1.45,8.36l-2.73-0.47l1.94-11.22L252.74,154.72z"/>
</g>
<g>
	<path d="M141.55,283.09C63.5,283.09,0,219.6,0,141.55C0,63.5,63.5,0,141.55,0c78.05,0,141.55,63.5,141.55,141.55
		C283.09,219.6,219.6,283.09,141.55,283.09z M141.55,3.79C65.59,3.79,3.79,65.59,3.79,141.55s61.8,137.76,137.76,137.76
		s137.76-61.8,137.76-137.76S217.51,3.79,141.55,3.79z"/>
</g>
</svg>
